# xmcd CD database file
#
# Track frame offsets:
#	150
#	7861
#	19424
#	30834
#	68587
#	92424
#	113651
#	126777
#	142193
#	166044
#	191246
#	211750
#	227047
#	245640
#	263078
#	278204
#	295434
#	323068
#
# Disc length: 4640 seconds
#
# Revision: 0
# Processed by: cddbd v1.5.2PL0 Copyright (c) Steve Scherf et al.
# Submitted via: CDex 1.51
#
DISCID=f5121e12
DTITLE=Dolly Parton - Live and Well 2002 (edit)
DYEAR=1900
DGENRE=Country
TTITLE0=01 - Orange Blossom Special
TTITLE1=02 - Train, Train
TTITLE2=03 - The Grass is Blue
TTITLE3=04 - Mountain Angel
TTITLE4=05 - Shine
TTITLE5=06 - Little Sparrow
TTITLE6=07 - Rocky Top
TTITLE7=08 - My Tennesse Mountain Home
TTITLE8=09 - Coat of Many Colors
TTITLE9=10 - Smokey Mountain Memories
TTITLE10=11 - Applejack
TTITLE11=12 - Marry Me
TTITLE12=02 - I'm Gone
TTITLE13=03 - Dagger Through the Heart
TTITLE14=06 - 9 to 5
TTITLE15=07 - Jolene
TTITLE16=08 - A Capella Medley- Islands in the Stream, Here You Came
TTITLE17=11 - I Will Always Love You
EXTD=
EXTT0=
EXTT1=
EXTT2=
EXTT3=
EXTT4=
EXTT5=
EXTT6=
EXTT7=
EXTT8=
EXTT9=
EXTT10=
EXTT11=
EXTT12=
EXTT13=
EXTT14=
EXTT15=
EXTT16=
EXTT17=
PLAYORDER=
